<svg width="1098" height="244" viewBox="0 0 1098 244" fill="none" xmlns="http://www.w3.org/2000/svg">
<g clip-path="url(#clip0_432_5820)">
<g clip-path="url(#clip1_432_5820)">
<path d="M30.6641 104.441V44.5292C30.6641 26.3127 36.7362 13.1564 46.2493 7.59021C55.7624 2.02406 63.8586 0 74.1813 0C87.1352 0 97.6603 2.93488 106.364 8.39983L97.1543 28.2356C92.0942 25.9079 86.6292 24.5923 80.2534 24.5923C66.2875 24.5923 59.1021 31.6765 59.1021 45.9461V104.543" fill="white"/>
<path d="M59.2033 137.636V189.654H30.6641V137.636" fill="white"/>
<path d="M345.001 50.3994C348.745 50.3994 351.377 50.703 353.198 50.9054V78.0278C351.377 77.7242 348.948 77.5218 345.81 77.5218C332.654 77.5218 321.319 81.9747 312.009 90.6781C302.799 99.3816 297.233 110.716 295.614 124.986V189.553H267.176V52.5247H295.614V87.642C301.787 66.1871 320.51 50.3994 345.001 50.3994Z" fill="white"/>
<path d="M438.613 49.8926C469.783 49.8926 511.681 73.6752 505.306 131.664H396.917C401.168 155.144 419.081 168.097 442.054 168.097C456.526 168.097 469.176 163.847 480.005 155.447L496.096 170.729C483.243 185.1 465.027 192.285 441.244 192.285C429.403 192.285 418.069 189.957 407.24 184.897C385.886 174.574 368.985 151.703 368.985 121.342C368.985 98.3687 378.498 78.8366 392.161 67.5019C406.228 56.1672 422.825 49.8926 438.613 49.8926ZM438.613 74.3837C419.587 74.3837 401.471 87.54 397.221 110.513H479.802C478.487 99.1784 473.73 90.1713 465.533 83.8967C457.335 77.521 448.43 74.3837 438.613 74.3837Z" fill="white"/>
<path d="M618.551 82.2777L594.769 88.8559C590.012 78.0272 582.422 72.7647 572.099 72.7647C561.27 72.7647 553.377 78.8368 553.377 88.0463C553.377 95.7377 558.639 101.506 569.164 105.15L584.243 110.412C610.354 119.622 623.51 128.831 623.51 150.792C623.51 163.746 618.551 173.968 608.431 181.355C598.715 188.44 586.571 192.184 572.302 192.184C545.179 192.184 525.849 178.218 520.587 154.739L543.256 147.857C547.507 160.508 558.336 169.211 572.302 169.211C585.255 169.211 595.781 161.823 595.781 151.298C595.781 143.607 589.708 137.534 577.868 133.082L562.282 127.515C537.994 118.812 525.849 105.656 525.849 87.6415C525.849 76.3068 530.1 67.2997 538.803 60.2155C547.507 53.1313 558.336 49.6904 570.986 49.6904C594.263 49.8928 610.86 62.2396 618.551 82.2777Z" fill="white"/>
<path d="M645.978 3.1377H674.416V30.5637H645.978V3.1377ZM645.978 52.5247H674.416V189.654H645.978V52.5247Z" fill="white"/>
<path d="M812.052 74.8903V52.5245H840.49V189.654C840.49 231.046 802.235 244 774.303 244C757.402 244 744.246 240.863 735.037 234.791V211.008C744.044 217.08 757.2 220.015 774.303 220.015C797.782 220.015 812.052 207.668 812.052 189.654V167.187H810.433C804.057 180.141 786.65 192.286 764.79 192.286C749.003 192.286 732.608 186.213 719.148 174.879C705.688 163.544 696.681 144.012 696.681 121.039C696.681 98.0657 705.688 78.5336 719.148 67.1989C732.608 55.8642 749.003 49.792 764.79 49.792C786.65 49.792 804.057 61.9363 810.433 74.8903C810.433 74.8903 812.052 74.8903 812.052 74.8903ZM768.535 166.985C780.375 166.985 790.698 163.038 799.402 154.841C808.409 146.643 812.862 135.612 812.862 121.039C812.862 106.567 808.409 95.4345 799.402 87.237C790.698 79.0396 780.375 75.0927 768.535 75.0927C756.896 75.0927 746.675 79.0396 737.668 87.237C728.964 95.4345 724.511 106.466 724.511 121.039C724.511 135.511 728.964 146.643 737.668 154.841C746.675 163.038 756.998 166.985 768.535 166.985Z" fill="white"/>
<path d="M945.335 49.8934C959.605 49.8934 971.749 54.9535 981.768 65.175C991.787 75.4977 996.847 90.4757 996.847 110.311V189.654H968.409V111.83C968.409 87.3384 954.747 74.8905 935.721 74.8905C925.196 74.8905 916.492 78.5338 909.611 85.9216C903.032 93.0058 899.085 100.394 898.276 107.579V189.553H869.838V3.1377H898.276V80.9627C901.008 73.0688 915.177 49.8934 945.335 49.8934Z" fill="white"/>
<path d="M1092.99 52.5246V76.3073H1063.95V153.019C1063.95 161.722 1068.2 165.973 1076.9 165.973C1081.86 165.973 1087.22 164.961 1092.99 162.836V186.214C1086.41 189.654 1078.52 191.274 1069.21 191.274C1048.06 191.274 1035.41 182.874 1035.41 159.395V76.2061H1016.38V52.5246H1035.41V17.4072H1063.84V52.5246H1092.99V52.5246Z" fill="white"/>
<path d="M238.231 90.1718C229.528 71.1457 214.449 60.6206 197.852 54.5484C181.76 48.1727 165.669 48.1727 149.072 54.5484C132.981 60.6206 117.699 71.1457 108.995 90.1718C106.263 96.0416 104.441 102.519 103.429 109.198H0V132.981H103.227C104.239 139.862 106.162 146.441 108.894 152.412C117.598 171.134 132.879 181.659 148.971 187.731C165.568 193.803 181.659 193.803 197.75 187.731C214.348 181.659 229.427 171.134 238.13 152.412C246.935 133.689 246.935 108.894 238.231 90.1718ZM203.62 154.84C194.917 163.038 184.898 166.985 173.563 166.985C162.228 166.985 152.209 163.038 143.202 154.84C134.499 146.643 130.046 135.612 130.046 121.342C130.046 106.87 134.499 95.738 143.202 87.5405C152.209 79.3431 162.228 75.1938 173.563 75.1938C184.898 75.1938 194.917 79.4443 203.62 87.5405C212.627 95.738 217.08 106.769 217.08 121.342C217.08 135.612 212.627 146.643 203.62 154.84Z" fill="#FFDF6B"/>
<path d="M205.947 133.082C206.15 132.576 206.453 132.07 206.656 131.564C208.478 127.617 209.287 123.164 209.287 118.408C209.287 113.752 208.376 109.401 206.656 105.353C205.846 103.632 203.519 103.328 202.304 104.847L197.042 111.222C196.536 111.83 196.333 112.639 196.536 113.449C196.839 115.068 197.042 116.687 197.042 118.509V120.735C197.042 122.456 196.839 124.176 196.536 125.796C196.333 126.605 196.536 127.415 197.042 128.022L202.304 134.398C203.519 135.916 205.846 135.612 206.656 133.892C208.478 129.945 209.287 125.593 209.287 120.837C209.287 116.08 208.376 111.627 206.656 107.68" fill="#FFDF6B"/>
<path d="M199.774 101L198.155 102.923C196.434 105.048 193.297 105.15 191.475 103.126C191.273 102.923 191.07 102.62 190.767 102.417C188.844 100.494 186.516 98.8751 183.885 97.7619C181.254 96.6487 178.521 96.0414 175.586 96.0414C172.652 96.0414 169.818 96.6487 167.288 97.7619C164.657 98.8751 162.43 100.393 160.507 102.417C160.406 102.518 160.406 102.518 160.305 102.62C158.888 104.138 156.56 104.542 154.84 103.429L152.613 102.114C150.083 100.697 149.577 97.1547 151.703 95.1306C151.804 95.0294 151.905 94.9282 151.905 94.9282C154.941 91.9933 158.483 89.7669 162.531 88.1476C166.579 86.5284 171.032 85.7188 175.688 85.7188C180.343 85.7188 184.796 86.5284 188.844 88.1476C192.892 89.7669 196.434 91.9933 199.572 94.9282C201.191 96.6487 201.292 99.1787 199.774 101Z" fill="#FFDF6B"/>
</g>
</g>
<defs>
<clipPath id="clip0_432_5820">
<rect width="1098" height="244" fill="white"/>
</clipPath>
<clipPath id="clip1_432_5820">
<rect width="1092.99" height="244" fill="white"/>
</clipPath>
</defs>
</svg>
